<svg xmlns="http://www.w3.org/2000/svg" width="52" height="68" viewBox="0 0 52 68" shape-rendering="crispEdges">
<ellipse cx="26" cy="60" rx="16" ry="4" fill="#000" opacity=".22"/>
<path d="M14 30h24v23H14z" fill="#cf6fa7"/><path d="M17 33h18v17H17z" fill="#f0a4cf"/><path d="M18 18h16v15H18z" fill="#c18a68"/>
<path d="M12 13h28v12H12z" fill="#40251e"/><path d="M10 22h8v18h-8zM34 22h8v18h-8z" fill="#40251e"/><path d="M18 15h4v5h-4zM30 15h4v5h-4z" fill="#2a1814"/>
<path d="M20 23h3v3h-3zM30 23h3v3h-3z" fill="#211"/><path d="M24 29h7v2h-7z" fill="#7b3b3b"/>
<path d="M10 38h7v14h-7zM35 38h7v14h-7z" fill="#c18a68"/><path d="M18 53h8v8h-8zM27 53h8v8h-8z" fill="#5b3a4c"/>
<path d="M36 9h6v6h-6zM34 11h10v3H34z" fill="#ffd7ed"/>
</svg>
